<?xml version="1.0" encoding="utf-8"?>
<!-- Generator: Adobe Illustrator 24.2.3, SVG Export Plug-In . SVG Version: 6.00 Build 0)  -->
<svg version="1.1" id="Layer_1" xmlns="http://www.w3.org/2000/svg" xmlns:xlink="http://www.w3.org/1999/xlink" x="0px" y="0px"
	 viewBox="0 0 1500 1500" style="enable-background:new 0 0 1500 1500;" xml:space="preserve">
<style type="text/css">
	.st0{fill:#1F2021;}
	.st1{opacity:0.5;fill:none;stroke:#3776A5;stroke-width:6;stroke-miterlimit:10;}
	.st2{opacity:0.5;fill:#3776A5;}
	.st3{fill:none;stroke:#3776A5;stroke-width:9;stroke-miterlimit:10;}
	.st4{fill:none;stroke:#FFFFFF;stroke-width:8;stroke-miterlimit:10;}
</style>
<circle class="st0" cx="750" cy="750" r="225"/>
<g>
	<polyline class="st1" points="655.35,683.92 655.35,647.41 702.68,588.43 797.33,588.43 844.65,647.41 844.65,683.92 	"/>
	<circle class="st2" cx="750" cy="630.29" r="21.36"/>
	<polyline class="st3" points="735.55,912.57 735.55,728.18 655.35,728.18 655.35,695.85 844.65,695.85 844.65,728.18 
		764.77,728.18 764.77,809.84 806.61,809.84 806.61,828.24 764.77,828.24 764.77,846.11 806.61,846.11 806.61,864.17 764.77,864.17 
		764.77,890.16 806.61,890.16 806.61,908.63 760.7,908.63 	"/>
</g>
<circle class="st4" cx="750" cy="750" r="212.6"/>
</svg>
