<svg width="48" height="56" viewBox="0 0 48 56" fill="none" xmlns="http://www.w3.org/2000/svg">
<path d="M23.601 26.9754C27.3069 26.9754 30.5159 25.6462 33.1379 23.0238C35.7599 20.4018 37.0891 17.1936 37.0891 13.4873C37.0891 9.78219 35.7599 6.57358 33.1375 3.95073C30.5151 1.32916 27.3065 0 23.601 0C19.8946 0 16.6864 1.32916 14.0644 3.95116C11.4424 6.57316 10.1128 9.78176 10.1128 13.4873C10.1128 17.1936 11.4424 20.4022 14.0648 23.0242C16.6873 25.6458 19.8959 26.9754 23.601 26.9754Z" fill="#297BB2"/>
<path d="M47.2016 43.0611C47.126 41.9699 46.973 40.7796 46.7479 39.5227C46.5206 38.2563 46.2279 37.0592 45.8776 35.965C45.5157 34.8341 45.0235 33.7173 44.4151 32.647C43.7836 31.5362 43.0419 30.5689 42.2097 29.773C41.3394 28.9403 40.2738 28.2708 39.0416 27.7824C37.8137 27.2967 36.4529 27.0506 34.9973 27.0506C34.4257 27.0506 33.8728 27.2851 32.8051 27.9802C32.148 28.4088 31.3794 28.9044 30.5215 29.4525C29.7879 29.9199 28.7941 30.3579 27.5667 30.7543C26.3691 31.1419 25.1531 31.3384 23.953 31.3384C22.7529 31.3384 21.5374 31.1419 20.3385 30.7543C19.1123 30.3583 18.1185 29.9204 17.3858 29.453C16.536 28.9099 15.767 28.4143 15.1 27.9798C14.0336 27.2847 13.4803 27.0501 12.9087 27.0501C11.4526 27.0501 10.0923 27.2967 8.86481 27.7829C7.63348 28.2703 6.5675 28.9398 5.69635 29.7734C4.8645 30.5698 4.12238 31.5366 3.49176 32.647C2.88379 33.7173 2.3916 34.8337 2.0293 35.9654C1.67938 37.0596 1.38672 38.2563 1.15942 39.5227C0.934265 40.7779 0.781311 41.9687 0.705689 43.0624C0.631348 44.1339 0.59375 45.246 0.59375 46.3693C0.59375 49.2925 1.52301 51.659 3.35547 53.4043C5.16528 55.1265 7.56 56.0002 10.4721 56.0002H37.4365C40.3486 56.0002 42.7424 55.1269 44.5527 53.4043C46.3856 51.6603 47.3148 49.2933 47.3148 46.3688C47.3144 45.2405 47.2764 44.1275 47.2016 43.0611Z" fill="#297BB2"/>
</svg>
